<svg xmlns="http://www.w3.org/2000/svg" style="display:none;">
    <symbol id="pagination_ellipse" viewBox="0 0 8 8">
        <circle cx="4" cy="4" r="3.5" stroke="#333333"/>
    </symbol>
    <symbol id="searching" viewBox="0 0 16 16">
        <path d="M11.4351 10.0629H10.7124L10.4563 9.81589C11.3528 8.77301 11.8925 7.4191 11.8925 5.94625C11.8925 2.66209 9.23042 0 5.94625 0C2.66209 0 0 2.66209 0 5.94625C0 9.23042 2.66209 11.8925 5.94625 11.8925C7.4191 11.8925 8.77301 11.3528 9.81589 10.4563L10.0629 10.7124V11.4351L14.6369 16L16 14.6369L11.4351 10.0629ZM5.94625 10.0629C3.66838 10.0629 1.82962 8.22413 1.82962 5.94625C1.82962 3.66838 3.66838 1.82962 5.94625 1.82962C8.22413 1.82962 10.0629 3.66838 10.0629 5.94625C10.0629 8.22413 8.22413 10.0629 5.94625 10.0629Z"/>
    </symbol>
    <symbol id="logo_vector" viewBox="0 0 205 40">
        <path d="M.84 11.024c-.206-.33-.397-.78-.574-1.35A6.033 6.033 0 0 1 0 7.874c0-1.17.25-2.01.752-2.52.532-.51 1.21-.765 2.036-.765h19.297c.207.33.398.78.575 1.35.177.57.266 1.17.266 1.8 0 1.17-.266 2.01-.797 2.52-.501.51-1.165.765-1.991.765h-4.913V31.81c-.325.09-.84.18-1.55.27-.678.09-1.356.135-2.035.135s-1.284-.06-1.815-.18c-.501-.09-.929-.27-1.283-.54-.354-.27-.62-.645-.797-1.125-.177-.48-.265-1.11-.265-1.89V11.024H.84ZM31.85 31.946c-.295.09-.768.18-1.417.27-.62.09-1.268.135-1.947.135-.65 0-1.24-.045-1.77-.135-.502-.09-.93-.27-1.284-.54a2.792 2.792 0 0 1-.84-1.08c-.178-.48-.266-1.095-.266-1.845V15.253c0-.69.118-1.275.354-1.755a4.35 4.35 0 0 1 1.106-1.35c.472-.39 1.048-.734 1.726-1.034a16.838 16.838 0 0 1 4.736-1.395c.856-.15 1.711-.225 2.567-.225 1.416 0 2.538.285 3.364.855.826.54 1.239 1.44 1.239 2.7 0 .42-.06.84-.177 1.26-.118.39-.266.75-.443 1.08a20.679 20.679 0 0 0-3.806.359c-.62.12-1.21.255-1.77.405a6.74 6.74 0 0 0-1.372.45v15.343ZM42.345 4.05c0-1.14.369-2.1 1.106-2.88.767-.78 1.77-1.17 3.01-1.17 1.24 0 2.228.39 2.965 1.17.767.78 1.151 1.74 1.151 2.88s-.384 2.1-1.15 2.88c-.738.779-1.727 1.169-2.966 1.169-1.24 0-2.242-.39-3.01-1.17-.737-.78-1.106-1.74-1.106-2.88Zm7.878 27.896c-.325.06-.812.135-1.46.225-.62.12-1.255.18-1.904.18s-1.239-.045-1.77-.135c-.502-.09-.93-.27-1.284-.54a2.79 2.79 0 0 1-.84-1.08c-.178-.48-.266-1.095-.266-1.845V10.44c.325-.06.797-.135 1.416-.225.65-.12 1.298-.18 1.948-.18.649 0 1.224.045 1.726.135.53.09.973.27 1.327.54.355.27.62.645.797 1.125.207.45.31 1.05.31 1.8v18.312ZM64.882 9.449c1.77 0 3.408.24 4.913.72 1.535.45 2.848 1.155 3.94 2.114 1.091.96 1.947 2.175 2.566 3.645.62 1.44.93 3.165.93 5.174 0 1.92-.266 3.6-.797 5.04s-1.283 2.654-2.257 3.644c-.974.96-2.154 1.68-3.54 2.16-1.358.48-2.878.72-4.56.72-1.268 0-2.448-.195-3.54-.585v7.47c-.295.089-.767.179-1.416.269-.65.12-1.314.18-1.992.18-.65 0-1.24-.045-1.77-.135-.502-.09-.93-.27-1.284-.54s-.62-.645-.797-1.125c-.177-.45-.265-1.05-.265-1.8V14.803c0-.81.162-1.47.487-1.98.354-.51.826-.975 1.416-1.394.915-.6 2.05-1.08 3.408-1.44 1.357-.36 2.877-.54 4.558-.54Zm.09 17.188c3.038 0 4.558-1.845 4.558-5.535 0-1.92-.384-3.344-1.151-4.274-.738-.93-1.815-1.395-3.23-1.395-.561 0-1.063.075-1.506.225a5.15 5.15 0 0 0-1.15.45v9.899c.354.18.737.33 1.15.45.413.12.856.18 1.328.18ZM105.466 31.811c-.325.09-.841.18-1.549.27-.679.09-1.357.135-2.036.135a8.28 8.28 0 0 1-1.815-.18 2.936 2.936 0 0 1-1.283-.54c-.354-.27-.62-.645-.797-1.125-.177-.48-.265-1.11-.265-1.89v-7.019h-8.498v10.349c-.325.09-.84.18-1.549.27-.679.09-1.357.135-2.036.135-.678 0-1.283-.06-1.815-.18-.501-.09-.929-.27-1.283-.54-.354-.27-.62-.645-.797-1.125-.177-.48-.265-1.11-.265-1.89V4.724c.324-.06.84-.135 1.549-.225.708-.12 1.387-.18 2.036-.18.678 0 1.269.06 1.77.18.531.09.974.27 1.328.54.354.27.62.645.796 1.125.178.48.266 1.11.266 1.89v7.2h8.498V4.723c.324-.06.84-.135 1.549-.225.708-.12 1.387-.18 2.036-.18.678 0 1.268.06 1.77.18.531.09.974.27 1.328.54.354.27.619.645.796 1.125.177.48.266 1.11.266 1.89v23.757ZM132.901 21.057c0 1.86-.28 3.525-.841 4.995-.561 1.44-1.357 2.654-2.39 3.644-1.003.99-2.213 1.74-3.629 2.25-1.417.51-2.995.765-4.736.765-1.741 0-3.319-.27-4.736-.81-1.416-.54-2.64-1.305-3.673-2.295-1.003-1.02-1.785-2.25-2.346-3.69-.56-1.44-.841-3.059-.841-4.859 0-1.77.281-3.374.841-4.814.561-1.44 1.343-2.655 2.346-3.645a10.468 10.468 0 0 1 3.673-2.34c1.417-.54 2.995-.81 4.736-.81 1.741 0 3.319.286 4.736.856 1.416.54 2.626 1.32 3.629 2.34 1.033.99 1.829 2.204 2.39 3.644.561 1.44.841 3.03.841 4.77Zm-15.491 0c0 1.83.34 3.24 1.018 4.23.708.96 1.682 1.44 2.921 1.44 1.24 0 2.184-.495 2.833-1.485.679-.99 1.018-2.385 1.018-4.185 0-1.8-.339-3.18-1.018-4.14-.679-.989-1.638-1.484-2.877-1.484-1.239 0-2.198.495-2.877 1.485-.678.96-1.018 2.34-1.018 4.14ZM136.572 10.439c.295-.09.752-.18 1.372-.27.649-.09 1.313-.135 1.991-.135.649 0 1.225.045 1.726.135.531.09.974.27 1.328.54.354.27.62.645.797 1.125.206.45.31 1.05.31 1.8v9.673c0 1.23.295 2.115.885 2.655.59.51 1.445.765 2.567.765.678 0 1.224-.06 1.637-.18.443-.12.782-.24 1.018-.36V10.439c.295-.09.753-.18 1.372-.27.649-.09 1.313-.135 1.992-.135.649 0 1.224.045 1.726.135.531.09.974.27 1.328.54.354.27.619.645.796 1.125.207.45.31 1.05.31 1.8v13.678c0 1.5-.619 2.624-1.859 3.374-1.032.66-2.272 1.155-3.717 1.485-1.417.36-2.966.54-4.648.54-1.593 0-3.068-.18-4.425-.54-1.328-.36-2.479-.915-3.453-1.665-.973-.75-1.726-1.71-2.257-2.88-.531-1.2-.796-2.64-.796-4.319V10.44ZM180.478 25.467c0 2.28-.841 4.064-2.523 5.354-1.682 1.29-4.161 1.935-7.436 1.935-1.239 0-2.39-.09-3.452-.27-1.062-.18-1.977-.45-2.744-.81-.737-.39-1.328-.87-1.77-1.44-.413-.57-.62-1.245-.62-2.024 0-.72.148-1.32.443-1.8.295-.51.649-.93 1.062-1.26.856.48 1.829.915 2.921 1.305 1.121.36 2.405.54 3.851.54.914 0 1.608-.135 2.08-.405.501-.27.752-.63.752-1.08 0-.42-.177-.75-.531-.99-.354-.24-.944-.435-1.77-.585l-1.328-.27c-2.567-.51-4.485-1.305-5.754-2.385-1.239-1.11-1.859-2.684-1.859-4.724 0-1.11.236-2.115.709-3.015a6.286 6.286 0 0 1 1.991-2.25c.856-.6 1.874-1.064 3.054-1.394 1.21-.33 2.538-.495 3.983-.495 1.092 0 2.11.09 3.054.27.974.15 1.815.39 2.523.72.708.33 1.269.765 1.682 1.304.413.51.619 1.125.619 1.845 0 .69-.132 1.29-.398 1.8-.236.48-.546.885-.929 1.215-.236-.15-.591-.3-1.063-.45-.472-.18-.988-.33-1.549-.45-.56-.15-1.136-.27-1.726-.36a9.82 9.82 0 0 0-1.549-.135c-.974 0-1.726.12-2.257.36-.531.21-.797.555-.797 1.035 0 .33.148.6.443.81.295.21.856.405 1.682.585l1.372.315c2.832.66 4.839 1.575 6.019 2.744 1.21 1.14 1.815 2.625 1.815 4.455ZM195.706 32.71c-1.741 0-3.364-.24-4.869-.719a11.498 11.498 0 0 1-3.895-2.25c-1.091-.99-1.962-2.234-2.611-3.734-.619-1.5-.929-3.255-.929-5.265 0-1.98.31-3.674.929-5.084.649-1.44 1.49-2.61 2.523-3.51a9.525 9.525 0 0 1 3.541-2.024 12.601 12.601 0 0 1 4.071-.675c1.564 0 2.981.24 4.249.72 1.299.48 2.405 1.14 3.32 1.98a8.426 8.426 0 0 1 2.168 3.014c.531 1.17.797 2.445.797 3.825 0 1.02-.28 1.8-.841 2.34-.561.54-1.342.884-2.346 1.034l-10.932 1.665c.325.99.989 1.74 1.992 2.25 1.003.48 2.154.72 3.452.72 1.21 0 2.346-.15 3.408-.45 1.092-.33 1.977-.705 2.656-1.125.472.3.87.72 1.195 1.26.324.54.487 1.11.487 1.71 0 1.35-.62 2.354-1.859 3.014-.944.51-2.007.855-3.187 1.035-1.18.18-2.287.27-3.319.27Zm-1.24-17.682c-.708 0-1.327.12-1.858.36-.502.24-.915.555-1.24.945-.324.36-.575.78-.752 1.26-.148.45-.236.915-.266 1.395l7.569-1.26c-.089-.6-.413-1.2-.974-1.8-.561-.6-1.387-.9-2.479-.9Z"
              />
    </symbol>
    <symbol id="close_button" viewBox="0 0 26 26">
    <path d="M26 1.4857L24.5144 0L13 11.5143L1.4857 0L0 1.4857L11.5143 13L0 24.5144L1.4857 26L13 14.4857L24.5144 26L26 24.5144L14.4857 13L26 1.4857Z" fill="#BFBFBF"/>
    </symbol>
    <symbol id="accountCircle" viewBox="0 0 40 40">
        <g>
            <path d="M20 0C8.96 0 0 8.96 0 20s8.96 20 20 20 20-8.96 20-20S31.04 0 20 0Zm0 6c3.32 0 6 2.68 6 6s-2.68 6-6 6-6-2.68-6-6 2.68-6 6-6Zm0 28.4c-5 0-9.42-2.56-12-6.44.06-3.98 8-6.16 12-6.16 3.98 0 11.94 2.18 12 6.16-2.58 3.88-7 6.44-12 6.44Z"
            />
        </g>
    </symbol>
    <symbol id="night_icon" viewBox="0 0 30 30">
        <path d="M25.61 10.61V4.39h-6.22L15 0l-4.39 4.39H4.39v6.22L0 15l4.39 4.39v6.22h6.22L15 30l4.39-4.39h6.22v-6.22L30 15l-4.39-4.39ZM15 22.958a7.925 7.925 0 0 1-3.316-.73c2.732-1.26 4.642-4.018 4.642-7.228s-1.91-5.968-4.642-7.228A7.925 7.925 0 0 1 15 7.042c4.39 0 7.957 3.568 7.957 7.958 0 4.39-3.567 7.958-7.957 7.958Z"
              />
    </symbol>
    <symbol id="app_store_badge" viewBox="0 0 120 40" fill="none">
        <g>
            <path d="M110.135 0.00013H9.53469C9.16798 0.00013 8.80568 0.00013 8.43995 0.00212999C8.1338 0.00412999 7.83009 0.00993997 7.521 0.01483C6.84952 0.0227317 6.17961 0.081806 5.5171 0.191539C4.85553 0.303662 4.21467 0.515044 3.61622 0.818537C3.0185 1.1246 2.47235 1.52229 1.99757 1.99719C1.5203 2.47076 1.12246 3.01814 0.81935 3.61828C0.515401 4.21723 0.304641 4.85905 0.19435 5.52159C0.083011 6.1833 0.0230984 6.85263 0.01515 7.52359C0.00587 7.83018 0.00489 8.1378 0 8.44444V31.5586C0.00489 31.8691 0.00587 32.1699 0.01515 32.4805C0.0231008 33.1514 0.0830134 33.8207 0.19435 34.4824C0.304336 35.1453 0.515108 35.7875 0.81935 36.3867C1.12233 36.9849 1.52022 37.5301 1.99757 38.001C2.47055 38.478 3.01705 38.876 3.61622 39.1797C4.21467 39.484 4.85545 39.6967 5.5171 39.8105C6.17972 39.9194 6.84956 39.9785 7.521 39.9873C7.83009 39.9941 8.1338 39.998 8.43995 39.998C8.80567 40 9.168 40 9.53469 40H110.135C110.494 40 110.859 40 111.219 39.998C111.524 39.998 111.836 39.9941 112.141 39.9873C112.811 39.9789 113.479 39.9198 114.141 39.8105C114.805 39.6959 115.448 39.4833 116.049 39.1797C116.648 38.8758 117.194 38.4779 117.666 38.001C118.142 37.5282 118.541 36.9835 118.848 36.3867C119.15 35.7871 119.358 35.145 119.467 34.4824C119.578 33.8207 119.64 33.1515 119.652 32.4805C119.656 32.1699 119.656 31.8691 119.656 31.5586C119.664 31.1953 119.664 30.834 119.664 30.4648V9.53623C119.664 9.17002 119.664 8.80674 119.656 8.44444C119.656 8.1378 119.656 7.83018 119.652 7.52355C119.64 6.85253 119.578 6.18335 119.467 5.52155C119.358 4.8594 119.149 4.21762 118.848 3.61824C118.23 2.41532 117.252 1.43615 116.049 0.818447C115.448 0.515696 114.804 0.304369 114.141 0.191449C113.48 0.0812325 112.811 0.0221377 112.141 0.01469C111.836 0.00980997 111.524 0.00394999 111.219 0.00199999C110.859 0 110.494 0 110.135 0V0.00013Z"
                  fill="#A6A6A6"/>
            <path d="M8.44487 39.1251C8.14019 39.1251 7.84287 39.1212 7.54058 39.1144C6.91436 39.1062 6.28961 39.0517 5.67144 38.9513C5.09503 38.852 4.53664 38.6673 4.0147 38.4034C3.49754 38.1416 3.02585 37.7984 2.6177 37.3868C2.20364 36.9801 1.85891 36.5083 1.59719 35.9903C1.33258 35.4689 1.14945 34.91 1.05419 34.3331C0.951311 33.7132 0.895651 33.0864 0.887687 32.4581C0.881347 32.2472 0.873047 31.545 0.873047 31.545V8.44445C0.873047 8.44445 0.881887 7.75304 0.887737 7.54991C0.895363 6.9226 0.950699 6.29677 1.05327 5.67785C1.14871 5.09937 1.33197 4.53887 1.59673 4.01575C1.85749 3.49806 2.2003 3.02598 2.61187 2.6178C3.02297 2.20574 3.49617 1.86072 4.01421 1.59533C4.53495 1.33222 5.09228 1.14885 5.66753 1.05139C6.28773 0.949958 6.91465 0.895118 7.54304 0.887332L8.44536 0.875122H111.214L112.127 0.887822C112.75 0.895221 113.371 0.949572 113.985 1.05041C114.566 1.1491 115.13 1.33374 115.656 1.59826C116.694 2.13311 117.539 2.97928 118.071 4.01819C118.332 4.5377 118.512 5.09362 118.607 5.66711C118.71 6.29111 118.768 6.92185 118.78 7.55431C118.783 7.83751 118.783 8.14171 118.783 8.44445C118.791 8.81945 118.791 9.17638 118.791 9.53624V30.4649C118.791 30.8282 118.791 31.1827 118.783 31.5401C118.783 31.8653 118.783 32.1632 118.779 32.4698C118.768 33.091 118.711 33.7104 118.608 34.3233C118.515 34.9043 118.333 35.4676 118.068 35.9933C117.805 36.5057 117.462 36.9733 117.053 37.379C116.644 37.7928 116.172 38.138 115.653 38.4015C115.128 38.6675 114.566 38.8528 113.985 38.9513C113.367 39.0522 112.743 39.1068 112.116 39.1144C111.823 39.1212 111.517 39.1251 111.219 39.1251L110.135 39.1271L8.44487 39.1251Z"
                  fill="black"/>
            <path d="M24.7689 20.3007C24.7797 19.4661 25.0014 18.6477 25.4134 17.9217C25.8254 17.1958 26.4144 16.5858 27.1255 16.1486C26.6738 15.5035 26.0778 14.9725 25.385 14.598C24.6922 14.2234 23.9215 14.0156 23.1343 13.991C21.4551 13.8147 19.8272 14.9958 18.9715 14.9958C18.0992 14.9958 16.7817 14.0085 15.363 14.0376C14.4453 14.0673 13.551 14.3341 12.7671 14.8122C11.9832 15.2903 11.3365 15.9632 10.8901 16.7655C8.95608 20.114 10.3987 25.035 12.2513 27.7417C13.1782 29.067 14.2614 30.5475 15.6789 30.495C17.0659 30.4375 17.584 29.6105 19.2583 29.6105C20.917 29.6105 21.4031 30.495 22.8493 30.4616C24.3376 30.4374 25.2754 29.1304 26.1698 27.7924C26.8357 26.8481 27.3482 25.8044 27.6882 24.6999C26.8235 24.3342 26.0856 23.722 25.5664 22.9397C25.0473 22.1574 24.77 21.2396 24.7689 20.3007Z"
                  fill="white"/>
            <path d="M22.0375 12.2111C22.849 11.2369 23.2488 9.98468 23.152 8.72046C21.9122 8.85068 20.767 9.44323 19.9445 10.3801C19.5424 10.8377 19.2344 11.3702 19.0381 11.9469C18.8419 12.5237 18.7612 13.1335 18.8008 13.7414C19.4209 13.7478 20.0344 13.6134 20.5951 13.3483C21.1557 13.0832 21.6489 12.6944 22.0375 12.2111Z"
                  fill="white"/>
            <path d="M42.3022 27.1397H37.5688L36.4321 30.4962H34.4272L38.9106 18.0781H40.9937L45.4771 30.4962H43.438L42.3022 27.1397ZM38.0591 25.5909H41.8111L39.9615 20.1436H39.9097L38.0591 25.5909Z"
                  fill="white"/>
            <path d="M55.1597 25.9698C55.1597 28.7833 53.6539 30.5909 51.3814 30.5909C50.8057 30.6211 50.2332 30.4885 49.7294 30.2083C49.2256 29.9282 48.8109 29.5118 48.5328 29.0069H48.4898V33.4913H46.6313V21.4425H48.4302V22.9483H48.4644C48.7553 22.4459 49.1771 22.0317 49.6847 21.7498C50.1923 21.468 50.7669 21.329 51.3472 21.3477C53.645 21.3477 55.1597 23.1642 55.1597 25.9698ZM53.2496 25.9698C53.2496 24.1368 52.3023 22.9317 50.857 22.9317C49.437 22.9317 48.482 24.1622 48.482 25.9698C48.482 27.7941 49.437 29.0157 50.857 29.0157C52.3023 29.0157 53.2496 27.8195 53.2496 25.9698Z"
                  fill="white"/>
            <path d="M65.1245 25.9698C65.1245 28.7833 63.6187 30.5909 61.3462 30.5909C60.7706 30.6211 60.1981 30.4884 59.6943 30.2083C59.1905 29.9282 58.7758 29.5118 58.4976 29.0069H58.4546V33.4913H56.5962V21.4425H58.395V22.9483H58.4292C58.7201 22.4459 59.1419 22.0317 59.6495 21.7498C60.1571 21.468 60.7317 21.329 61.312 21.3477C63.6099 21.3477 65.1245 23.1641 65.1245 25.9698ZM63.2144 25.9698C63.2144 24.1368 62.2671 22.9317 60.8218 22.9317C59.4019 22.9317 58.4468 24.1622 58.4468 25.9698C58.4468 27.7941 59.4019 29.0157 60.8218 29.0157C62.2671 29.0157 63.2144 27.8194 63.2144 25.9698H63.2144Z"
                  fill="white"/>
            <path d="M71.7105 27.0362C71.8482 28.2676 73.0445 29.0762 74.6792 29.0762C76.2456 29.0762 77.3725 28.2676 77.3725 27.1572C77.3725 26.1933 76.6928 25.6162 75.0835 25.2207L73.4741 24.833C71.1939 24.2822 70.1353 23.2158 70.1353 21.4853C70.1353 19.3428 72.0025 17.8711 74.6538 17.8711C77.2778 17.8711 79.0766 19.3428 79.1372 21.4853H77.2612C77.1489 20.2461 76.1245 19.498 74.6274 19.498C73.1304 19.498 72.1059 20.2549 72.1059 21.3564C72.1059 22.2344 72.7602 22.751 74.3608 23.1464L75.729 23.4824C78.2768 24.0849 79.3354 25.1084 79.3354 26.9248C79.3354 29.248 77.4848 30.7031 74.5415 30.7031C71.7876 30.7031 69.9282 29.2822 69.8081 27.0361L71.7105 27.0362Z"
                  fill="white"/>
            <path d="M83.3461 19.3V21.4426H85.0678V22.9143H83.3461V27.9055C83.3461 28.6809 83.6909 29.0422 84.4477 29.0422C84.6521 29.0387 84.8561 29.0243 85.059 28.9992V30.4621C84.7188 30.5257 84.3729 30.5545 84.0268 30.5481C82.1938 30.5481 81.479 29.8596 81.479 28.1037V22.9143H80.1626V21.4426H81.479V19.3H83.3461Z"
                  fill="white"/>
            <path d="M86.0649 25.97C86.0649 23.1213 87.7427 21.3313 90.3589 21.3313C92.9838 21.3313 94.6537 23.1213 94.6537 25.97C94.6537 28.8264 92.9926 30.6086 90.3589 30.6086C87.726 30.6086 86.0649 28.8264 86.0649 25.97ZM92.7602 25.97C92.7602 24.0159 91.8647 22.8625 90.3588 22.8625C88.853 22.8625 87.9585 24.0247 87.9585 25.97C87.9585 27.9319 88.853 29.0764 90.3588 29.0764C91.8647 29.0764 92.7602 27.9319 92.7602 25.97H92.7602Z"
                  fill="white"/>
            <path d="M96.186 21.4425H97.9585V22.9835H98.0015C98.1215 22.5022 98.4034 22.0769 98.8 21.779C99.1966 21.4811 99.6837 21.3288 100.179 21.3478C100.393 21.347 100.607 21.3703 100.816 21.4171V23.1554C100.546 23.0728 100.264 23.0348 99.981 23.0431C99.711 23.0321 99.4419 23.0797 99.192 23.1826C98.9422 23.2855 98.7176 23.4413 98.5336 23.6391C98.3496 23.837 98.2106 24.0724 98.1262 24.3291C98.0418 24.5857 98.0139 24.8576 98.0445 25.1261V30.4963H96.186L96.186 21.4425Z"
                  fill="white"/>
            <path d="M109.384 27.8371C109.134 29.4806 107.534 30.6085 105.486 30.6085C102.852 30.6085 101.217 28.8439 101.217 26.0129C101.217 23.1731 102.861 21.3313 105.408 21.3313C107.913 21.3313 109.488 23.052 109.488 25.7971V26.4338H103.093V26.5461C103.064 26.8793 103.105 27.2149 103.216 27.5308C103.326 27.8466 103.502 28.1354 103.732 28.3779C103.963 28.6205 104.242 28.8112 104.552 28.9375C104.862 29.0638 105.195 29.1228 105.529 29.1105C105.968 29.1516 106.409 29.0499 106.785 28.8205C107.162 28.5911 107.455 28.2461 107.62 27.8371L109.384 27.8371ZM103.102 25.135H107.629C107.645 24.8354 107.6 24.5356 107.495 24.2544C107.39 23.9731 107.229 23.7166 107.02 23.5009C106.812 23.2851 106.561 23.1148 106.283 23.0005C106.006 22.8863 105.708 22.8307 105.408 22.8371C105.105 22.8353 104.805 22.8935 104.525 23.0082C104.245 23.123 103.99 23.292 103.776 23.5057C103.562 23.7193 103.392 23.9733 103.276 24.2529C103.16 24.5325 103.101 24.8323 103.102 25.135V25.135Z"
                  fill="white"/>
            <path d="M37.8262 8.73101C38.2158 8.70305 38.6067 8.76191 38.9708 8.90335C39.335 9.04478 39.6631 9.26526 39.9317 9.54888C40.2003 9.8325 40.4026 10.1722 40.524 10.5435C40.6454 10.9147 40.6829 11.3083 40.6338 11.6958C40.6338 13.6021 39.6035 14.6978 37.8262 14.6978H35.6709V8.73101H37.8262ZM36.5976 13.854H37.7226C38.001 13.8706 38.2797 13.825 38.5382 13.7204C38.7967 13.6157 39.0287 13.4548 39.2172 13.2492C39.4057 13.0437 39.546 12.7987 39.6278 12.532C39.7097 12.2654 39.7311 11.9839 39.6904 11.708C39.7281 11.4332 39.7046 11.1534 39.6214 10.8887C39.5383 10.6241 39.3977 10.3811 39.2096 10.1771C39.0216 9.97321 38.7907 9.8134 38.5336 9.70917C38.2766 9.60493 37.9996 9.55885 37.7226 9.57422H36.5976V13.854Z"
                  fill="white"/>
            <path d="M41.6809 12.4443C41.6526 12.1483 41.6865 11.8498 41.7803 11.5677C41.8742 11.2857 42.0259 11.0263 42.2258 10.8063C42.4258 10.5864 42.6695 10.4106 42.9413 10.2903C43.2132 10.17 43.5072 10.1079 43.8044 10.1079C44.1017 10.1079 44.3957 10.17 44.6675 10.2903C44.9393 10.4106 45.183 10.5864 45.383 10.8063C45.5829 11.0263 45.7347 11.2857 45.8285 11.5677C45.9223 11.8498 45.9562 12.1483 45.9279 12.4443C45.9567 12.7405 45.9233 13.0395 45.8297 13.322C45.7361 13.6045 45.5844 13.8643 45.3845 14.0847C45.1845 14.3051 44.9406 14.4813 44.6685 14.6018C44.3963 14.7223 44.102 14.7846 43.8044 14.7846C43.5068 14.7846 43.2125 14.7223 42.9404 14.6018C42.6682 14.4813 42.4244 14.3051 42.2244 14.0847C42.0244 13.8643 41.8727 13.6045 41.7791 13.322C41.6855 13.0395 41.6521 12.7405 41.6809 12.4443ZM45.0138 12.4443C45.0138 11.4682 44.5754 10.8974 43.8059 10.8974C43.0334 10.8974 42.5989 11.4682 42.5989 12.4443C42.5989 13.4282 43.0335 13.9945 43.8059 13.9945C44.5754 13.9945 45.0139 13.4242 45.0139 12.4443H45.0138Z"
                  fill="white"/>
            <path d="M51.5732 14.6978H50.6514L49.7207 11.3813H49.6504L48.7236 14.6978H47.8105L46.5693 10.1948H47.4707L48.2773 13.6308H48.3438L49.2695 10.1948H50.1221L51.0479 13.6308H51.1182L51.9209 10.1948H52.8096L51.5732 14.6978Z"
                  fill="white"/>
            <path d="M53.8535 10.1949H54.709V10.9102H54.7754C54.888 10.6533 55.078 10.4379 55.3189 10.2941C55.5598 10.1503 55.8395 10.0852 56.1191 10.1079C56.3382 10.0915 56.5582 10.1245 56.7628 10.2046C56.9674 10.2847 57.1514 10.4098 57.3011 10.5707C57.4507 10.7315 57.5623 10.924 57.6275 11.1338C57.6927 11.3436 57.7099 11.5654 57.6777 11.7828V14.6979H56.789V12.006C56.789 11.2823 56.4746 10.9224 55.8174 10.9224C55.6686 10.9155 55.5201 10.9408 55.3821 10.9967C55.244 11.0525 55.1197 11.1375 55.0175 11.2459C54.9154 11.3543 54.8379 11.4835 54.7904 11.6246C54.7429 11.7657 54.7264 11.9155 54.7422 12.0636V14.6979H53.8535L53.8535 10.1949Z"
                  fill="white"/>
            <path d="M59.0938 8.43701H59.9825V14.6978H59.0938V8.43701Z" fill="white"/>
            <path d="M61.218 12.4443C61.1897 12.1483 61.2236 11.8498 61.3175 11.5677C61.4113 11.2856 61.5631 11.0262 61.7631 10.8062C61.963 10.5862 62.2068 10.4105 62.4786 10.2902C62.7505 10.1699 63.0445 10.1078 63.3418 10.1078C63.6391 10.1078 63.9331 10.1699 64.2049 10.2902C64.4768 10.4105 64.7205 10.5862 64.9205 10.8062C65.1204 11.0262 65.2722 11.2856 65.3661 11.5677C65.4599 11.8498 65.4938 12.1483 65.4655 12.4443C65.4943 12.7405 65.4608 13.0395 65.3672 13.322C65.2736 13.6046 65.1219 13.8644 64.9219 14.0848C64.7219 14.3052 64.478 14.4813 64.2059 14.6019C63.9337 14.7224 63.6394 14.7847 63.3418 14.7847C63.0441 14.7847 62.7498 14.7224 62.4777 14.6019C62.2055 14.4813 61.9616 14.3052 61.7616 14.0848C61.5616 13.8644 61.4099 13.6046 61.3163 13.322C61.2227 13.0395 61.1892 12.7405 61.218 12.4443ZM64.551 12.4443C64.551 11.4682 64.1125 10.8974 63.343 10.8974C62.5705 10.8974 62.136 11.4682 62.136 12.4443C62.136 13.4282 62.5706 13.9946 63.343 13.9946C64.1125 13.9946 64.551 13.4243 64.551 12.4443H64.551Z"
                  fill="white"/>
            <path d="M66.4009 13.4243C66.4009 12.6137 67.0044 12.1464 68.0757 12.08L69.2954 12.0097V11.621C69.2954 11.1454 68.981 10.8768 68.3735 10.8768C67.8774 10.8768 67.5337 11.059 67.4351 11.3774H66.5747C66.6655 10.6039 67.3931 10.1078 68.4146 10.1078C69.5435 10.1078 70.1802 10.6698 70.1802 11.621V14.6977H69.3247V14.0649H69.2544C69.1117 14.2919 68.9113 14.477 68.6737 14.6012C68.436 14.7254 68.1697 14.7843 67.9019 14.7719C67.7128 14.7916 67.5218 14.7714 67.341 14.7127C67.1602 14.654 66.9938 14.5581 66.8524 14.4311C66.711 14.3042 66.5977 14.149 66.52 13.9755C66.4422 13.8021 66.4016 13.6143 66.4009 13.4243ZM69.2954 13.0395V12.663L68.1958 12.7333C67.5757 12.7748 67.2944 12.9858 67.2944 13.3828C67.2944 13.788 67.646 14.0239 68.1294 14.0239C68.2711 14.0382 68.4142 14.0239 68.5502 13.9818C68.6862 13.9397 68.8123 13.8707 68.9211 13.7789C69.0299 13.687 69.1191 13.5742 69.1834 13.4472C69.2477 13.3202 69.2858 13.1815 69.2954 13.0395Z"
                  fill="white"/>
            <path d="M71.3481 12.4444C71.3481 11.0215 72.0796 10.1201 73.2173 10.1201C73.4987 10.1072 73.778 10.1746 74.0225 10.3145C74.267 10.4544 74.4667 10.661 74.5981 10.9102H74.6645V8.43701H75.5532V14.6978H74.7016V13.9864H74.6313C74.4897 14.2339 74.2831 14.4379 74.0338 14.5764C73.7846 14.7149 73.5022 14.7825 73.2173 14.772C72.0718 14.7721 71.3481 13.8707 71.3481 12.4444ZM72.2661 12.4444C72.2661 13.3995 72.7163 13.9742 73.4692 13.9742C74.2182 13.9742 74.6811 13.3912 74.6811 12.4483C74.6811 11.5098 74.2134 10.9185 73.4692 10.9185C72.7212 10.9185 72.2661 11.4971 72.2661 12.4444H72.2661Z"
                  fill="white"/>
            <path d="M79.2298 12.4443C79.2015 12.1483 79.2353 11.8498 79.3292 11.5677C79.423 11.2857 79.5748 11.0263 79.7747 10.8063C79.9746 10.5864 80.2184 10.4106 80.4902 10.2903C80.7621 10.17 81.0561 10.1079 81.3533 10.1079C81.6506 10.1079 81.9446 10.17 82.2164 10.2903C82.4883 10.4106 82.732 10.5864 82.932 10.8063C83.1319 11.0263 83.2837 11.2857 83.3775 11.5677C83.4713 11.8498 83.5052 12.1483 83.4769 12.4443C83.5057 12.7405 83.4723 13.0395 83.3787 13.322C83.2851 13.6045 83.1334 13.8643 82.9334 14.0847C82.7334 14.3051 82.4895 14.4813 82.2174 14.6018C81.9453 14.7223 81.651 14.7846 81.3533 14.7846C81.0557 14.7846 80.7614 14.7223 80.4892 14.6018C80.2171 14.4813 79.9732 14.3051 79.7732 14.0847C79.5732 13.8643 79.4216 13.6045 79.328 13.322C79.2344 13.0395 79.2009 12.7405 79.2298 12.4443ZM82.5628 12.4443C82.5628 11.4682 82.1243 10.8974 81.3548 10.8974C80.5823 10.8974 80.1478 11.4682 80.1478 12.4443C80.1478 13.4282 80.5824 13.9945 81.3548 13.9945C82.1243 13.9945 82.5628 13.4242 82.5628 12.4443Z"
                  fill="white"/>
            <path d="M84.6694 10.1949H85.5249V10.9102H85.5913C85.704 10.6533 85.894 10.4379 86.1349 10.2941C86.3757 10.1503 86.6555 10.0852 86.9351 10.1079C87.1542 10.0915 87.3742 10.1245 87.5788 10.2046C87.7834 10.2847 87.9673 10.4098 88.117 10.5707C88.2667 10.7315 88.3783 10.924 88.4435 11.1338C88.5087 11.3436 88.5258 11.5654 88.4937 11.7828V14.6979H87.605V12.006C87.605 11.2823 87.2906 10.9224 86.6333 10.9224C86.4846 10.9155 86.3361 10.9408 86.198 10.9967C86.0599 11.0525 85.9356 11.1375 85.8335 11.2459C85.7313 11.3543 85.6539 11.4835 85.6063 11.6246C85.5588 11.7657 85.5424 11.9155 85.5581 12.0636V14.6979H84.6694V10.1949Z"
                  fill="white"/>
            <path d="M93.5151 9.07373V10.2153H94.4907V10.9639H93.5151V13.2793C93.5151 13.751 93.7095 13.9575 94.1518 13.9575C94.2651 13.9572 94.3783 13.9503 94.4907 13.937V14.6772C94.3311 14.7058 94.1694 14.721 94.0073 14.7227C93.019 14.7227 92.6255 14.375 92.6255 13.5068V10.9638H91.9106V10.2153H92.6255V9.07373H93.5151Z"
                  fill="white"/>
            <path d="M95.7046 8.43701H96.5855V10.9185H96.6558C96.7739 10.6592 96.9691 10.4426 97.2148 10.2982C97.4605 10.1539 97.7447 10.0888 98.0288 10.1118C98.2467 10.1 98.4646 10.1364 98.6669 10.2184C98.8692 10.3005 99.0509 10.4261 99.199 10.5865C99.3471 10.7468 99.458 10.9379 99.5238 11.146C99.5896 11.3541 99.6086 11.5742 99.5796 11.7906V14.6978H98.69V12.0098C98.69 11.2905 98.355 10.9263 97.7271 10.9263C97.5744 10.9138 97.4207 10.9348 97.277 10.9878C97.1332 11.0409 97.0027 11.1247 96.8947 11.2334C96.7867 11.3422 96.7038 11.4732 96.6517 11.6173C96.5997 11.7615 96.5797 11.9152 96.5933 12.0679V14.6978H95.7046L95.7046 8.43701Z"
                  fill="white"/>
            <path d="M104.761 13.4819C104.641 13.8935 104.379 14.2495 104.022 14.4876C103.666 14.7258 103.237 14.8309 102.81 14.7847C102.514 14.7925 102.219 14.7357 101.946 14.6182C101.674 14.5006 101.43 14.3252 101.232 14.1041C101.034 13.8829 100.887 13.6214 100.8 13.3375C100.713 13.0537 100.69 12.7544 100.73 12.4604C100.691 12.1656 100.715 11.8656 100.801 11.5809C100.888 11.2963 101.035 11.0335 101.231 10.8104C101.428 10.5873 101.671 10.4092 101.942 10.288C102.214 10.1667 102.509 10.1053 102.806 10.1079C104.059 10.1079 104.815 10.9639 104.815 12.3779V12.688H101.635V12.7378C101.621 12.903 101.642 13.0694 101.696 13.2261C101.75 13.3829 101.837 13.5266 101.95 13.6481C102.063 13.7695 102.2 13.866 102.352 13.9314C102.504 13.9968 102.669 14.0297 102.835 14.0278C103.047 14.0533 103.263 14.0151 103.453 13.9178C103.644 13.8206 103.802 13.6689 103.906 13.4819L104.761 13.4819ZM101.635 12.0307H103.91C103.921 11.8796 103.9 11.7278 103.849 11.5851C103.798 11.4424 103.718 11.3119 103.614 11.202C103.509 11.0922 103.383 11.0054 103.243 10.9472C103.103 10.889 102.953 10.8608 102.801 10.8642C102.648 10.8623 102.495 10.8912 102.353 10.9491C102.21 11.007 102.081 11.0929 101.972 11.2016C101.864 11.3103 101.778 11.4397 101.72 11.5821C101.662 11.7245 101.633 11.877 101.635 12.0307H101.635Z"
                  fill="white"/>
        </g>
    </symbol>
    <symbol id="google_play_badge" viewBox="0 0 135 40" fill="none">
        <path d="M130 39.9999H5C2.25 39.9999 0 37.7499 0 34.9999V4.99999C0 2.25 2.25 0 5 0H130C132.75 0 135 2.25 135 4.99999V34.9999C135 37.7499 132.75 39.9999 130 39.9999Z"
              fill="black"/>
        <path d="M130 0.799999C132.32 0.799999 134.2 2.68 134.2 4.99999V34.9999C134.2 37.3199 132.32 39.1999 130 39.1999H5C2.68 39.1999 0.8 37.3199 0.8 34.9999V4.99999C0.8 2.68 2.68 0.799999 5 0.799999H130ZM130 0H5C2.25 0 0 2.25 0 4.99999V34.9999C0 37.7499 2.25 39.9999 5 39.9999H130C132.75 39.9999 135 37.7499 135 34.9999V4.99999C135 2.25 132.75 0 130 0Z"
              fill="#A6A6A6"/>
        <path d="M47.4202 10.2399C47.4202 11.0799 47.1702 11.7499 46.6702 12.2399C46.1102 12.8299 45.3701 13.1299 44.4701 13.1299C43.6001 13.1299 42.8701 12.8299 42.2601 12.2299C41.6501 11.6299 41.3501 10.8799 41.3501 9.99991C41.3501 9.1099 41.6501 8.36989 42.2601 7.76988C42.8701 7.16988 43.6001 6.86987 44.4701 6.86987C44.9001 6.86987 45.3101 6.94987 45.7001 7.11988C46.0902 7.28988 46.4002 7.50988 46.6402 7.78988L46.1102 8.31989C45.7101 7.84988 45.1701 7.60988 44.4701 7.60988C43.8401 7.60988 43.2901 7.82988 42.8301 8.27989C42.3701 8.71989 42.1401 9.2999 42.1401 10.0099C42.1401 10.7199 42.3701 11.2999 42.8301 11.7399C43.2901 12.1799 43.8401 12.4099 44.4701 12.4099C45.1401 12.4099 45.7002 12.1899 46.1502 11.7399C46.4402 11.4499 46.6102 11.0399 46.6502 10.5199H44.4701V9.79991H47.3802C47.4002 9.94991 47.4202 10.0999 47.4202 10.2399Z"
              fill="white" stroke="white" stroke-width="0.2" stroke-miterlimit="10"/>
        <path d="M52.0303 7.73988H49.3003V9.63988H51.7603V10.3599H49.3003V12.2599H52.0303V12.9999H48.5303V6.99988H52.0303V7.73988Z"
              fill="white" stroke="white" stroke-width="0.2" stroke-miterlimit="10"/>
        <path d="M55.28 12.9999H54.5101V7.73988H52.8301V6.99988H56.95V7.73988H55.27V12.9999H55.28Z" fill="white"
              stroke="white" stroke-width="0.2" stroke-miterlimit="10"/>
        <path d="M59.9404 12.9999V6.99988H60.7104V12.9999H59.9404Z" fill="white" stroke="white" stroke-width="0.2"
              stroke-miterlimit="10"/>
        <path d="M64.1302 12.9999H63.3602V7.73988H61.6802V6.99988H65.8002V7.73988H64.1202V12.9999H64.1302Z" fill="white"
              stroke="white" stroke-width="0.2" stroke-miterlimit="10"/>
        <path d="M73.6101 12.2199C73.0201 12.8299 72.2901 13.1299 71.4101 13.1299C70.5301 13.1299 69.8001 12.8299 69.2101 12.2199C68.6201 11.6099 68.3301 10.8699 68.3301 9.99991C68.3301 9.1299 68.6201 8.37989 69.2101 7.77988C69.8001 7.16988 70.5301 6.86987 71.4101 6.86987C72.2801 6.86987 73.0101 7.16988 73.6101 7.77988C74.2001 8.38989 74.5001 9.1299 74.5001 9.99991C74.4901 10.8799 74.2001 11.6199 73.6101 12.2199ZM69.7801 11.7199C70.2201 12.1699 70.7701 12.3899 71.4101 12.3899C72.0501 12.3899 72.6001 12.1699 73.0401 11.7199C73.4801 11.2699 73.7101 10.6999 73.7101 9.99991C73.7101 9.2999 73.4901 8.72989 73.0401 8.27989C72.6001 7.82988 72.0501 7.60988 71.4101 7.60988C70.7701 7.60988 70.2201 7.82988 69.7801 8.27989C69.3401 8.72989 69.1101 9.2999 69.1101 9.99991C69.1101 10.6999 69.3401 11.2699 69.7801 11.7199Z"
              fill="white" stroke="white" stroke-width="0.2" stroke-miterlimit="10"/>
        <path d="M75.5801 12.9999V6.99988H76.5201L79.4401 11.6699H79.4701L79.4401 10.5099V6.99988H80.2101V12.9999H79.4101L76.3601 8.10988H76.3301L76.3601 9.26988V12.9999H75.5801Z"
              fill="white" stroke="white" stroke-width="0.2" stroke-miterlimit="10"/>
        <path d="M68.14 21.7501C65.79 21.7501 63.87 23.5401 63.87 26.0001C63.87 28.4501 65.79 30.2501 68.14 30.2501C70.49 30.2501 72.41 28.4501 72.41 26.0001C72.41 23.5401 70.49 21.7501 68.14 21.7501ZM68.14 28.5801C66.85 28.5801 65.74 27.5201 65.74 26.0001C65.74 24.4701 66.85 23.4201 68.14 23.4201C69.43 23.4201 70.54 24.4701 70.54 26.0001C70.54 27.5201 69.42 28.5801 68.14 28.5801ZM58.82 21.7501C56.47 21.7501 54.55 23.5401 54.55 26.0001C54.55 28.4501 56.47 30.2501 58.82 30.2501C61.17 30.2501 63.09 28.4501 63.09 26.0001C63.09 23.5401 61.17 21.7501 58.82 21.7501ZM58.82 28.5801C57.53 28.5801 56.42 27.5201 56.42 26.0001C56.42 24.4701 57.53 23.4201 58.82 23.4201C60.11 23.4201 61.22 24.4701 61.22 26.0001C61.22 27.5201 60.11 28.5801 58.82 28.5801ZM47.74 23.0601V24.8601H52.06C51.93 25.8701 51.59 26.6201 51.08 27.1301C50.45 27.7601 49.47 28.4501 47.75 28.4501C45.09 28.4501 43.01 26.3101 43.01 23.6501C43.01 20.9901 45.09 18.8501 47.75 18.8501C49.18 18.8501 50.23 19.4101 51 20.1401L52.27 18.8701C51.19 17.8401 49.76 17.05 47.74 17.05C44.1 17.05 41.04 20.0101 41.04 23.6601C41.04 27.3001 44.1 30.2701 47.74 30.2701C49.71 30.2701 51.19 29.6301 52.35 28.4201C53.54 27.2301 53.91 25.5501 53.91 24.2001C53.91 23.7801 53.88 23.3901 53.81 23.0701H47.74V23.0601ZM93.05 24.4601C92.7 23.5101 91.62 21.7501 89.41 21.7501C87.22 21.7501 85.4 23.4701 85.4 26.0001C85.4 28.3801 87.2 30.2501 89.62 30.2501C91.57 30.2501 92.7 29.0601 93.16 28.3701L91.71 27.4001C91.23 28.1101 90.57 28.5801 89.62 28.5801C88.67 28.5801 87.99 28.1401 87.56 27.2901L93.25 24.9401L93.05 24.4601ZM87.25 25.8801C87.2 24.2401 88.52 23.4001 89.47 23.4001C90.21 23.4001 90.84 23.7701 91.05 24.3001L87.25 25.8801ZM82.63 30.0001H84.5V17.5001H82.63V30.0001ZM79.57 22.7001H79.5C79.08 22.2001 78.28 21.7501 77.26 21.7501C75.13 21.7501 73.18 23.6201 73.18 26.0201C73.18 28.4001 75.13 30.2601 77.26 30.2601C78.27 30.2601 79.08 29.8101 79.5 29.2901H79.56V29.9001C79.56 31.5301 78.69 32.4001 77.29 32.4001C76.15 32.4001 75.44 31.5801 75.15 30.8901L73.52 31.5701C73.99 32.7001 75.23 34.0801 77.29 34.0801C79.48 34.0801 81.33 32.7901 81.33 29.6501V22.0101H79.56V22.7001H79.57ZM77.42 28.5801C76.13 28.5801 75.05 27.5001 75.05 26.0201C75.05 24.5201 76.13 23.4301 77.42 23.4301C78.69 23.4301 79.69 24.5301 79.69 26.0201C79.7 27.5001 78.7 28.5801 77.42 28.5801ZM101.81 17.5001H97.34V30.0001H99.21V25.2601H101.82C103.89 25.2601 105.92 23.7601 105.92 21.3801C105.92 19.0001 103.87 17.5001 101.81 17.5001ZM101.85 23.5201H99.2V19.2301H101.85C103.25 19.2301 104.04 20.3901 104.04 21.3701C104.04 22.3501 103.25 23.5201 101.85 23.5201ZM113.39 21.7301C112.04 21.7301 110.64 22.3301 110.06 23.6401L111.72 24.3301C112.07 23.6401 112.73 23.4101 113.42 23.4101C114.38 23.4101 115.37 23.9901 115.38 25.0201V25.1501C115.04 24.9601 114.32 24.6701 113.43 24.6701C111.64 24.6701 109.83 25.6501 109.83 27.4801C109.83 29.1501 111.29 30.2301 112.93 30.2301C114.18 30.2301 114.88 29.6701 115.31 29.0101H115.37V29.9801H117.17V25.1901C117.18 22.9701 115.52 21.7301 113.39 21.7301ZM113.16 28.5801C112.55 28.5801 111.7 28.2701 111.7 27.5201C111.7 26.5601 112.76 26.1901 113.68 26.1901C114.5 26.1901 114.89 26.3701 115.38 26.6101C115.24 27.7601 114.24 28.5801 113.16 28.5801ZM123.74 22.0001L121.6 27.4201H121.54L119.32 22.0001H117.31L120.64 29.5801L118.74 33.7901H120.69L125.82 22.0001H123.74ZM106.94 30.0001H108.81V17.5001H106.94V30.0001Z"
              fill="white"/>
        <path d="M10.4385 7.53997C10.1485 7.84997 9.97852 8.32997 9.97852 8.93996V31.0599C9.97852 31.6799 10.1485 32.1598 10.4385 32.4598L10.5085 32.5298L22.8986 20.1499V19.9999V19.8499L10.5085 7.46997L10.4385 7.53997Z"
              fill="#00A0FF"/>
        <path d="M27.0299 24.2799L22.8999 20.1499V19.9999V19.8499L27.0299 15.72L27.1199 15.77L32.0099 18.5499C33.4099 19.3399 33.4099 20.6399 32.0099 21.4399L27.1199 24.2199L27.0299 24.2799Z"
              fill="#FFE000"/>
        <path d="M27.1204 24.22L22.9004 20L10.4404 32.46C10.9004 32.95 11.6604 33.01 12.5204 32.52L27.1204 24.22Z"
              fill="#FF3A44"/>
        <path d="M27.1207 15.78L12.5107 7.47999C11.6507 6.98999 10.8907 7.04999 10.4307 7.53999L22.9007 20L27.1207 15.78Z"
              fill="#32A071"/>
        <path opacity="0.2"
              d="M27.0304 24.13L12.5104 32.38C11.7004 32.84 10.9704 32.81 10.5104 32.39L10.4404 32.46L10.5104 32.53C10.9804 32.95 11.7004 32.98 12.5104 32.52L27.1204 24.22L27.0304 24.13Z"
              fill="black"/>
        <path opacity="0.12"
              d="M10.4392 32.3201C10.1488 32.0101 9.97852 31.5301 9.97852 30.9202V31.0702C9.97852 31.6901 10.1488 32.1701 10.4392 32.4701L10.5093 32.4001L10.4392 32.3201Z"
              fill="black"/>
        <path opacity="0.12"
              d="M32.0099 21.3L27.02 24.1301L27.11 24.2201L31.9999 21.44C32.6999 21.04 33.0499 20.52 33.0499 20C32.9999 20.47 32.6499 20.94 32.0099 21.3Z"
              fill="black"/>
        <path opacity="0.25"
              d="M12.5097 7.61994L32.0098 18.6999C32.6398 19.0599 32.9998 19.5199 33.0598 19.9999C33.0598 19.4799 32.7098 18.9499 32.0098 18.5599L12.5097 7.47994C11.1097 6.68994 9.96973 7.34994 9.96973 8.94994V9.09994C9.96973 7.48994 11.1197 6.82994 12.5097 7.61994Z"
              fill="white"/>
    </symbol>
    <symbol id="sign_out_icon" viewBox="0 0 20 18" fill="none">
        <path d="M15 4L13.59 5.41L16.17 8H6V10H16.17L13.59 12.58L15 14L20 9L15 4ZM2 2H10V0H2C0.9 0 0 0.9 0 2V16C0 17.1 0.9 18 2 18H10V16H2V2Z"
              fill="#333333"/>
    </symbol>
    <symbol id="booking" viewBox="0 0 100 68">
        <path d="M16.667 9h75V.667h-75C12.083.667 8.333 4.417 8.333 9v45.833H0v12.5h58.333v-12.5H16.667V9Zm79.166 8.333h-25a4.179 4.179 0 0 0-4.166 4.167v41.667a4.179 4.179 0 0 0 4.166 4.166h25A4.179 4.179 0 0 0 100 63.167V21.5a4.179 4.179 0 0 0-4.167-4.167Zm-4.166 37.5H75V25.667h16.667v29.166Z"
              />
    </symbol>
    <symbol id="communicate" viewBox="0 0 84 84">
        <path d="M54.5 8.667v29.166H13.542l-4.875 4.875V8.667H54.5ZM58.667.333H4.5A4.179 4.179 0 0 0 .333 4.5v58.333L17 46.167h41.667A4.179 4.179 0 0 0 62.833 42V4.5A4.179 4.179 0 0 0 58.668.333ZM79.5 17h-8.333v37.5H17v8.333A4.179 4.179 0 0 0 21.167 67H67l16.667 16.667v-62.5A4.179 4.179 0 0 0 79.5 17Z"
              />
    </symbol>
    <symbol id="review" viewBox="0 0 92 84">
        <path d="M83.5 29.333H57.208l3.959-19.041.124-1.334a6.272 6.272 0 0 0-1.833-4.416L55.042.167 27.624 27.625a8.147 8.147 0 0 0-2.459 5.875v41.667c0 4.583 3.75 8.333 8.334 8.333H71a8.277 8.277 0 0 0 7.666-5.083L91.25 49.042A8.232 8.232 0 0 0 91.833 46v-8.333c0-4.584-3.75-8.334-8.333-8.334ZM83.5 46 71 75.167H33.5V33.5l18.083-18.083-4.625 22.25H83.5V46ZM.167 33.5h16.666v50H.167v-50Z"
              />
    </symbol>
    <symbol id="support" viewBox="0 0 76 92">
        <path d="M67.167 54.333V71h-8.334V54.333h8.334Zm-50 0V71H13a4.179 4.179 0 0 1-4.167-4.167v-12.5h8.334ZM38 .167C17.292.167.5 16.958.5 37.667v29.166c0 6.917 5.583 12.5 12.5 12.5h12.5V46H8.833v-8.333C8.833 21.542 21.875 8.5 38 8.5s29.167 13.042 29.167 29.167V46H50.5v33.333h16.667V83.5H38v8.333h25c6.917 0 12.5-5.583 12.5-12.5V37.667c0-20.709-16.792-37.5-37.5-37.5Z"
              />
    </symbol>
    <symbol id="arrow_up" viewBox="0 0 40 40">
        <circle cx="20" cy="20" r="20" fill="#F3F3F4"/>
        <path d="M28.8821 23.9409L20.6704 17.7821C19.9592 17.2487 18.9815 17.2487 18.2704 17.7821L10.0586 23.9409"
              stroke="#383838" stroke-width="2"/>
    </symbol>
    <symbol id="arrow_down" viewBox="0 0 40 40">
        <circle cx="20" cy="20" r="20" fill="#F3F3F4"/>
        <path d="M11.0002 20L19.212 26.1588C19.9231 26.6922 20.9009 26.6922 21.612 26.1588L29.8237 20" stroke="#383838"
              stroke-width="2"/>
    </symbol>
</svg>
